{
	"asset":{
		"generator":"Khronos glTF Blender I/O v4.1.63",
		"version":"2.0"
	},
	"scene":0,
	"scenes":[
		{
			"name":"Scene",
			"nodes":[
				0,
				1,
				2,
				3,
				4,
				5,
				6,
				7
			]
		}
	],
	"nodes":[
		{
			"mesh":0,
			"name":"Square"
		},
		{
			"mesh":1,
			"name":"Rectangle",
			"translation":[
				3,
				0,
				0
			]
		},
		{
			"mesh":2,
			"name":"Thin Rectangle",
			"translation":[
				6,
				0,
				0
			]
		},
		{
			"mesh":3,
			"name":"Cylinder",
			"translation":[
				9,
				0,
				0
			]
		},
		{
			"mesh":4,
			"name":"Semicircle",
			"translation":[
				13,
				0,
				1
			]
		},
		{
			"mesh":5,
			"name":"Triangle",
			"translation":[
				18,
				0,
				1
			]
		},
		{
			"mesh":6,
			"name":"Arch",
			"translation":[
				23,
				0,
				0
			]
		},
		{
			"mesh":7,
			"name":"Sorter",
			"scale":[
				0.864945113658905,
				0.864945113658905,
				0.864945113658905
			],
			"translation":[
				-11,
				0,
				0
			]
		}
	],
	"meshes":[
		{
			"name":"Square",
			"primitives":[
				{
					"attributes":{
						"POSITION":0,
						"NORMAL":1,
						"TEXCOORD_0":2
					},
					"indices":3
				}
			]
		},
		{
			"name":"Rectangle",
			"primitives":[
				{
					"attributes":{
						"POSITION":4,
						"NORMAL":5,
						"TEXCOORD_0":6
					},
					"indices":3
				}
			]
		},
		{
			"name":"Thin Rectangle",
			"primitives":[
				{
					"attributes":{
						"POSITION":7,
						"NORMAL":8,
						"TEXCOORD_0":9
					},
					"indices":3
				}
			]
		},
		{
			"name":"Cylinder",
			"primitives":[
				{
					"attributes":{
						"POSITION":10,
						"NORMAL":11,
						"TEXCOORD_0":12
					},
					"indices":13
				}
			]
		},
		{
			"name":"Semicircle",
			"primitives":[
				{
					"attributes":{
						"POSITION":14,
						"NORMAL":15,
						"TEXCOORD_0":16
					},
					"indices":17
				}
			]
		},
		{
			"name":"Triangle",
			"primitives":[
				{
					"attributes":{
						"POSITION":18,
						"NORMAL":19,
						"TEXCOORD_0":20
					},
					"indices":21
				}
			]
		},
		{
			"name":"Arch",
			"primitives":[
				{
					"attributes":{
						"POSITION":22,
						"NORMAL":23,
						"TEXCOORD_0":24
					},
					"indices":25
				}
			]
		},
		{
			"name":"Sorter",
			"primitives":[
				{
					"attributes":{
						"POSITION":26,
						"NORMAL":27,
						"TEXCOORD_0":28
					},
					"indices":29
				}
			]
		}
	],
	"accessors":[
		{
			"bufferView":0,
			"componentType":5126,
			"count":24,
			"max":[
				1,
				1,
				1
			],
			"min":[
				-1,
				-1,
				-1
			],
			"type":"VEC3"
		},
		{
			"bufferView":1,
			"componentType":5126,
			"count":24,
			"type":"VEC3"
		},
		{
			"bufferView":2,
			"componentType":5126,
			"count":24,
			"type":"VEC2"
		},
		{
			"bufferView":3,
			"componentType":5123,
			"count":36,
			"type":"SCALAR"
		},
		{
			"bufferView":4,
			"componentType":5126,
			"count":24,
			"max":[
				1,
				2,
				1
			],
			"min":[
				-1,
				-2,
				-1
			],
			"type":"VEC3"
		},
		{
			"bufferView":5,
			"componentType":5126,
			"count":24,
			"type":"VEC3"
		},
		{
			"bufferView":6,
			"componentType":5126,
			"count":24,
			"type":"VEC2"
		},
		{
			"bufferView":7,
			"componentType":5126,
			"count":24,
			"max":[
				0.5,
				2,
				1
			],
			"min":[
				-0.5,
				-2,
				-1
			],
			"type":"VEC3"
		},
		{
			"bufferView":8,
			"componentType":5126,
			"count":24,
			"type":"VEC3"
		},
		{
			"bufferView":9,
			"componentType":5126,
			"count":24,
			"type":"VEC2"
		},
		{
			"bufferView":10,
			"componentType":5126,
			"count":192,
			"max":[
				1,
				2,
				1
			],
			"min":[
				-1,
				-2,
				-1
			],
			"type":"VEC3"
		},
		{
			"bufferView":11,
			"componentType":5126,
			"count":192,
			"type":"VEC3"
		},
		{
			"bufferView":12,
			"componentType":5126,
			"count":192,
			"type":"VEC2"
		},
		{
			"bufferView":13,
			"componentType":5123,
			"count":372,
			"type":"SCALAR"
		},
		{
			"bufferView":14,
			"componentType":5126,
			"count":102,
			"max":[
				2,
				1,
				0
			],
			"min":[
				-2,
				-1,
				-2
			],
			"type":"VEC3"
		},
		{
			"bufferView":15,
			"componentType":5126,
			"count":102,
			"type":"VEC3"
		},
		{
			"bufferView":16,
			"componentType":5126,
			"count":102,
			"type":"VEC2"
		},
		{
			"bufferView":17,
			"componentType":5123,
			"count":192,
			"type":"SCALAR"
		},
		{
			"bufferView":18,
			"componentType":5126,
			"count":18,
			"max":[
				2,
				1,
				0
			],
			"min":[
				-2,
				-1,
				-2
			],
			"type":"VEC3"
		},
		{
			"bufferView":19,
			"componentType":5126,
			"count":18,
			"type":"VEC3"
		},
		{
			"bufferView":20,
			"componentType":5126,
			"count":18,
			"type":"VEC2"
		},
		{
			"bufferView":21,
			"componentType":5123,
			"count":24,
			"type":"SCALAR"
		},
		{
			"bufferView":22,
			"componentType":5126,
			"count":247,
			"max":[
				2,
				1,
				1
			],
			"min":[
				-2,
				-1,
				-1
			],
			"type":"VEC3"
		},
		{
			"bufferView":23,
			"componentType":5126,
			"count":247,
			"type":"VEC3"
		},
		{
			"bufferView":24,
			"componentType":5126,
			"count":247,
			"type":"VEC2"
		},
		{
			"bufferView":25,
			"componentType":5123,
			"count":726,
			"type":"SCALAR"
		},
		{
			"bufferView":26,
			"componentType":5126,
			"count":761,
			"max":[
				8.00000286102295,
				1,
				8
			],
			"min":[
				-7.999997138977051,
				-1,
				-8
			],
			"type":"VEC3"
		},
		{
			"bufferView":27,
			"componentType":5126,
			"count":761,
			"type":"VEC3"
		},
		{
			"bufferView":28,
			"componentType":5126,
			"count":761,
			"type":"VEC2"
		},
		{
			"bufferView":29,
			"componentType":5123,
			"count":1692,
			"type":"SCALAR"
		}
	],
	"bufferViews":[
		{
			"buffer":0,
			"byteLength":288,
			"byteOffset":0,
			"target":34962
		},
		{
			"buffer":0,
			"byteLength":288,
			"byteOffset":288,
			"target":34962
		},
		{
			"buffer":0,
			"byteLength":192,
			"byteOffset":576,
			"target":34962
		},
		{
			"buffer":0,
			"byteLength":72,
			"byteOffset":768,
			"target":34963
		},
		{
			"buffer":0,
			"byteLength":288,
			"byteOffset":840,
			"target":34962
		},
		{
			"buffer":0,
			"byteLength":288,
			"byteOffset":1128,
			"target":34962
		},
		{
			"buffer":0,
			"byteLength":192,
			"byteOffset":1416,
			"target":34962
		},
		{
			"buffer":0,
			"byteLength":288,
			"byteOffset":1608,
			"target":34962
		},
		{
			"buffer":0,
			"byteLength":288,
			"byteOffset":1896,
			"target":34962
		},
		{
			"buffer":0,
			"byteLength":192,
			"byteOffset":2184,
			"target":34962
		},
		{
			"buffer":0,
			"byteLength":2304,
			"byteOffset":2376,
			"target":34962
		},
		{
			"buffer":0,
			"byteLength":2304,
			"byteOffset":4680,
			"target":34962
		},
		{
			"buffer":0,
			"byteLength":1536,
			"byteOffset":6984,
			"target":34962
		},
		{
			"buffer":0,
			"byteLength":744,
			"byteOffset":8520,
			"target":34963
		},
		{
			"buffer":0,
			"byteLength":1224,
			"byteOffset":9264,
			"target":34962
		},
		{
			"buffer":0,
			"byteLength":1224,
			"byteOffset":10488,
			"target":34962
		},
		{
			"buffer":0,
			"byteLength":816,
			"byteOffset":11712,
			"target":34962
		},
		{
			"buffer":0,
			"byteLength":384,
			"byteOffset":12528,
			"target":34963
		},
		{
			"buffer":0,
			"byteLength":216,
			"byteOffset":12912,
			"target":34962
		},
		{
			"buffer":0,
			"byteLength":216,
			"byteOffset":13128,
			"target":34962
		},
		{
			"buffer":0,
			"byteLength":144,
			"byteOffset":13344,
			"target":34962
		},
		{
			"buffer":0,
			"byteLength":48,
			"byteOffset":13488,
			"target":34963
		},
		{
			"buffer":0,
			"byteLength":2964,
			"byteOffset":13536,
			"target":34962
		},
		{
			"buffer":0,
			"byteLength":2964,
			"byteOffset":16500,
			"target":34962
		},
		{
			"buffer":0,
			"byteLength":1976,
			"byteOffset":19464,
			"target":34962
		},
		{
			"buffer":0,
			"byteLength":1452,
			"byteOffset":21440,
			"target":34963
		},
		{
			"buffer":0,
			"byteLength":9132,
			"byteOffset":22892,
			"target":34962
		},
		{
			"buffer":0,
			"byteLength":9132,
			"byteOffset":32024,
			"target":34962
		},
		{
			"buffer":0,
			"byteLength":6088,
			"byteOffset":41156,
			"target":34962
		},
		{
			"buffer":0,
			"byteLength":3384,
			"byteOffset":47244,
			"target":34963
		}
	],
	"buffers":[
		{
			"byteLength":50628,
			"uri":"geos.bin"
		}
	]
}
